<?xml version="1.0" encoding="UTF-8" standalone="no"?>
<svg
   xmlns="http://www.w3.org/2000/svg"
   viewBox="0 40 109 182"
   height="182"
   width="109"
   xml:space="preserve"
   version="1.1"
>
    <g transform="matrix(1.3333333,0,0,-1.3333333,0,221.12)">
        <g transform="scale(0.1)">
            <path d="m 222.148,1079.5 c 0.325,2.26 0.618,4.46 0.872,6.71 0.156,1.31 -0.832,2.01 -2.415,2.33 0,0.23 0.04,0.41 0.09,0.65 1.27,10.44 -16.504,9.64 -18.047,2.32 -0.363,-1.85 -0.753,-3.74 -1.156,-5.58 -12.246,-3.19 -25.078,-7.78 -24.441,-7.55 -9.168,-3.1 -38.762,-8.66 -41.309,-21.7 C 116.973,961.469 98.8281,866.051 80.0586,770.844 65.1953,695.648 48.8008,620.82 34.7656,545.539 1.42969,366.582 0.789062,183.09 0,1.66016 0,-0.910156 4.59375,-0.25 10.8945,1.94922 c 6.9258,-0.57813 22.8672,4.83203 33.2383,8.78908 7.3906,2.2031 14.832,5.4805 15.4961,5.75 3.3008,1.082 7.4492,2.4531 11.7188,4.082 0.3515,-3 1.6211,-7.6797 4.5703,-8.0703 3.5742,-0.4883 5.3828,1.7109 5.3828,5.0195 v 7.3789 c 7.3711,3.711 13.2695,8.1914 13.2226,13.3516 -0.1875,93.5 0.0469,186.859 5.1172,280.301 2.1054,40.668 10.9334,82.199 17.5864,122.301 5.636,34.168 10.929,68.296 16.484,102.5 11.57,70.886 28.098,141.117 43.152,211.339 22.778,106.36 62.309,225.274 72.18,333.669 0.195,2.21 -23.438,-9.25 -26.895,-8.86" />
            <path d="m 514.211,876.867 c 51.23,52.219 95.887,109.692 139.98,167.903 27.274,36.05 50.84,74.53 72.684,114 32.5,56.55 60.734,115.76 90.352,173.6 3,5.88 -1.387,7.05 -7.051,6.62 0.664,1.37 1.367,2.77 2.051,4.15 1.218,2.37 1.171,3.84 0.429,4.75 0.266,0.47 0.41,0.91 0.645,1.38 2.004,3.94 -0.918,10.23 -5.852,9.93 -5.426,-0.35 -17.234,-6.46 -19.566,-11.6 l -2.895,-6.26 c -12.332,-5.57 -76.328,-22.71 -88.289,-29.12 -7.324,-2.92 -13.543,-7.27 -18.633,-13.1 -10.285,-23.92 -20.586,-47.88 -30.871,-71.77 -21.629,-45.91 -45.996,-90.26 -73.101,-133.17 C 536.809,1031.2 488.848,974.77 442.09,918.832 381.836,846.82 227.531,733.754 158.496,670.316 86.7383,604.441 67.4414,572.309 67.4414,572.309 c -4.375,-1.969 0,-39.258 0,-43.688 99.6096,-72.25 195.9256,-148.57 288.1956,-229.91 83.347,-73.602 169.14,-153.012 221.492,-252.4024 1.543,-2.8672 6.367,-1.5586 12.226,1.6328 10.84,0.8281 32.84,16.2695 34.61,17.3594 1.379,0.8398 9.14,4.6484 16.769,9.3906 0.645,-1.2422 1.407,-2.4219 2.071,-3.6602 3.836,-7.2929 2.019,0.8594 0.476,5.2774 8.36,5.543 15.567,12 13.086,16.75 -1.25,2.3398 -2.597,4.5898 -3.855,6.9804 0.429,1.262 0.429,2.461 0.136,3.582 2.047,2.59 3.25,5.16 2.196,7.16 -9.141,19.821 -20.332,38.489 -33.594,55.867 -15.555,20.653 -32.078,40.372 -49.629,59.274 -40.476,46.047 -84.504,90.16 -130.027,131.109 -37.219,33.489 -69.465,63.66 -108.313,95.199 -23.445,19.918 -106.711,103.559 -120.91,112.192 114.887,101.461 194.375,202.976 301.84,312.445" />
        </g>
    </g>
</svg>
